<svg width="145" height="22" viewBox="0 0 145 22" fill="none" xmlns="http://www.w3.org/2000/svg">
<g filter="url(#filter0_i_298_129)">
<path d="M16.0742 15.4336C16.0742 15.4401 16.0775 15.4531 16.084 15.4727L16.0547 15.5508H16.0645V15.5703C16.0645 15.5833 16.0612 15.5931 16.0547 15.5996C15.7487 15.834 15 16.0488 13.8086 16.2441C12.6237 16.4395 11.8066 16.5371 11.3574 16.5371C10.9147 16.5371 10.6673 16.5339 10.6152 16.5273L10.1172 16.5566C9.59635 16.5892 9.29688 16.6055 9.21875 16.6055C6.48438 16.6055 4.40104 15.9186 2.96875 14.5449C1.54297 13.1712 0.830078 11.2214 0.830078 8.69531C0.830078 6.16276 1.59831 4.24219 3.13477 2.93359C4.67773 1.625 6.76432 0.970703 9.39453 0.970703C9.8763 0.970703 10.4688 1.01628 11.1719 1.10742C11.8815 1.19857 12.5033 1.33203 13.0371 1.50781C13.6882 1.77474 14.2448 2.16211 14.707 2.66992C15.1758 3.17122 15.4818 3.72786 15.625 4.33984C15.651 4.50911 15.6803 4.77604 15.7129 5.14062C15.752 5.4987 15.7845 5.76237 15.8105 5.93164C15.7715 6.0293 15.6315 6.07812 15.3906 6.07812L10.4297 5.99023C10.4036 5.97721 10.3711 5.88932 10.332 5.72656V5.75586C10.2148 5.22852 9.98372 4.90625 9.63867 4.78906C9.48242 4.73047 9.27734 4.70117 9.02344 4.70117C8.76953 4.70117 8.52865 4.74349 8.30078 4.82812C8.07943 4.91276 7.89388 5.02995 7.74414 5.17969C7.5944 5.32943 7.46094 5.50521 7.34375 5.70703C7.22656 5.90234 7.13867 6.11393 7.08008 6.3418C7.02148 6.56966 6.9694 6.80404 6.92383 7.04492C6.87826 7.28581 6.84896 7.52344 6.83594 7.75781C6.82943 7.99219 6.81966 8.2168 6.80664 8.43164C6.80013 8.64648 6.80013 8.82552 6.80664 8.96875C6.81315 9.10547 6.81641 9.19661 6.81641 9.24219V9.91602C6.81641 10.3392 6.83594 10.6354 6.875 10.8047C6.91406 10.9674 6.95964 11.1497 7.01172 11.3516C7.0638 11.5469 7.12565 11.6966 7.19727 11.8008C7.45117 12.1589 7.72461 12.4095 8.01758 12.5527C8.31706 12.6895 8.7793 12.7578 9.4043 12.7578C10.0358 12.7578 10.6348 12.6634 11.2012 12.4746L11.25 10.9316L10.5469 10.873L10.4492 10.9219H9.43359L9.31641 10.9316L9.07227 10.6777C9.05924 10.5671 9.05273 10.3913 9.05273 10.1504V7.96289C9.05273 7.85221 9.13086 7.74154 9.28711 7.63086H9.94141C10.5078 7.63086 11.1426 7.63737 11.8457 7.65039H11.9434C12.5814 7.66341 13.0664 7.66992 13.3984 7.66992H13.9844L14.209 7.66016C15.3678 7.66016 16.0286 7.73503 16.1914 7.88477L16.0742 15.2969V15.4336ZM22.1484 4.02734C22.4414 3.94271 22.7539 3.90039 23.0859 3.90039C23.418 3.90039 23.7337 3.91341 24.0332 3.93945L24.4434 3.97852C25.0879 4.03711 25.5827 4.11198 25.9277 4.20312V4.19336L26.1328 4.28125C27.5 4.70443 28.5645 5.34896 29.3262 6.21484V6.20508C29.502 6.41341 29.7168 6.72917 29.9707 7.15234C30.2311 7.56901 30.3613 7.85872 30.3613 8.02148L30.4395 8.28516L30.4883 8.56836C30.612 9.00456 30.6738 9.36914 30.6738 9.66211C30.6738 9.95508 30.6771 10.1797 30.6836 10.3359H22.6367V10.6582C22.6758 10.8079 22.6953 10.9642 22.6953 11.127C22.6953 11.2897 22.6953 11.4199 22.6953 11.5176C22.7018 11.6087 22.7116 11.6999 22.7246 11.791C22.7376 11.8757 22.7441 11.9473 22.7441 12.0059C22.7507 12.0579 22.7669 12.123 22.793 12.2012C22.819 12.2728 22.832 12.3216 22.832 12.3477C22.8385 12.3737 22.8581 12.4258 22.8906 12.5039C22.9297 12.582 22.959 12.6569 22.9785 12.7285C23.0046 12.7936 23.0501 12.8587 23.1152 12.9238V12.9141L23.2227 13.1191C23.3464 13.2559 23.5156 13.3535 23.7305 13.4121C24.0885 13.334 24.3294 13.1484 24.4531 12.8555C24.5833 12.5625 24.6908 12.1979 24.7754 11.7617C25.0098 11.6966 25.3418 11.6641 25.7715 11.6641L27.0215 11.6934H30.625C30.5469 12.4876 30.3125 13.2168 29.9219 13.8809H29.9316C29.5931 14.4147 29.0658 14.8737 28.3496 15.2578C26.3249 15.9674 25.026 16.3223 24.4531 16.3223C24.349 16.3223 24.2643 16.3158 24.1992 16.3027H23.9746L23.8867 16.3125H23.7988C23.7467 16.3125 23.6816 16.306 23.6035 16.293C23.5384 16.332 23.4603 16.3516 23.3691 16.3516L22.5195 16.2539C22.474 16.2734 22.3796 16.2832 22.2363 16.2832C22.0996 16.2832 21.735 16.1953 21.1426 16.0195V16.0293L20.9082 15.9609L20.6738 15.8828C19.6973 15.5964 18.8607 15.0951 18.1641 14.3789C17.4674 13.6562 17.0215 12.8164 16.8262 11.8594C16.8066 11.7422 16.7708 11.5664 16.7188 11.332C16.6667 11.0911 16.6406 10.9284 16.6406 10.8438V10.375C16.6406 10.2643 16.6439 10.1797 16.6504 10.1211V9.97461C16.6504 8.5944 17.0605 7.40299 17.8809 6.40039C18.7012 5.39128 19.8014 4.68164 21.1816 4.27148L21.416 4.20312C21.7611 4.14453 22.0085 4.08268 22.1582 4.01758L22.1484 4.02734ZM25.0684 9.04688L25.2734 8.91992C25.1628 8.2168 25.0586 7.76758 24.9609 7.57227C24.8633 7.37044 24.7689 7.19792 24.6777 7.05469C24.5085 6.78125 24.2839 6.64453 24.0039 6.64453C23.7305 6.64453 23.4961 6.78125 23.3008 7.05469C22.9557 7.53646 22.7376 8.21354 22.6465 9.08594C23.0632 9.0599 23.4473 9.04688 23.7988 9.04688H25.0684ZM45.9375 10.0918C45.9245 10.1569 45.918 10.196 45.918 10.209V10.2871C45.8984 11.3613 45.651 12.3281 45.1758 13.1875H45.1855C44.5215 14.2031 43.5938 14.9844 42.4023 15.5312C41.2174 16.0781 40.0488 16.3516 38.8965 16.3516C37.7441 16.3516 36.7871 16.2376 36.0254 16.0098C35.2702 15.7884 34.5703 15.4629 33.9258 15.0332C33.2812 14.6035 32.8027 14.1901 32.4902 13.793C31.748 12.8555 31.377 11.5306 31.377 9.81836C31.377 9.75977 31.3867 9.71094 31.4062 9.67188V9.51562C31.3867 9.48958 31.377 9.46354 31.377 9.4375L31.3965 9.33008H31.3867C31.5104 8.19076 31.7513 7.44206 32.1094 7.08398C32.1094 7.01237 32.1549 6.93099 32.2461 6.83984V6.84961L32.3926 6.61523C33.1608 5.63216 34.0397 4.95833 35.0293 4.59375L35.3711 4.4668C35.8008 4.25846 36.403 4.10221 37.1777 3.99805L37.4902 3.96875C37.5358 3.96224 37.627 3.95573 37.7637 3.94922C37.9069 3.94271 38.0078 3.92969 38.0664 3.91016L38.4863 3.91992C38.5059 3.91341 38.5286 3.91016 38.5547 3.91016C38.5807 3.91016 38.61 3.91341 38.6426 3.91992L38.6328 3.91016C38.6719 3.92969 38.7305 3.93945 38.8086 3.93945C38.8346 3.91341 38.8802 3.90039 38.9453 3.90039C40.3581 3.90039 41.5592 4.1901 42.5488 4.76953L42.7441 4.85742C44.873 5.87956 45.9375 7.62435 45.9375 10.0918ZM39.8633 10.1504C39.8372 8.85482 39.6517 7.97917 39.3066 7.52344C39.1634 7.33464 38.9876 7.24023 38.7793 7.24023C38.5775 7.24023 38.3984 7.36068 38.2422 7.60156C38.0859 7.83594 37.959 8.20703 37.8613 8.71484C37.7702 9.22266 37.7246 9.67513 37.7246 10.0723C37.7246 10.4629 37.7409 10.8014 37.7734 11.0879C37.8125 11.3678 37.8678 11.6673 37.9395 11.9863C38.0111 12.2988 38.1217 12.5625 38.2715 12.7773C38.4212 12.9857 38.5905 13.0898 38.7793 13.0898C39.502 13.0898 39.8633 12.11 39.8633 10.1504ZM52.6562 7.60156C52.5781 9.44401 52.5391 11.3385 52.5391 13.2852V16.1953H51.8262L51.582 16.1855L48.1152 16.2148C47.8939 16.2148 47.7767 16.2181 47.7637 16.2246C47.7637 16.2181 47.7767 16.1628 47.8027 16.0586V16L47.8125 15.9609C47.7799 15.4922 47.7637 14.9225 47.7637 14.252L47.8027 3.34375L47.793 2.83594V2.34766L47.7734 1.42969C47.7734 1.36458 47.8092 1.29622 47.8809 1.22461H49.2188L50 1.21484C51.8359 1.21484 53.1478 1.24089 53.9355 1.29297C54.7298 1.34505 55.2995 1.37109 55.6445 1.37109C55.8333 2.49089 56.1133 3.97526 56.4844 5.82422L57.1777 9.32031H57.5195L58.7695 2.93359C58.7891 2.83594 58.8346 2.55273 58.9062 2.08398C58.9779 1.60872 59.0332 1.34505 59.0723 1.29297H59.1113L65.4688 1.23438L65.8496 1.24414H66.9434C67.002 1.27018 67.0345 1.39062 67.041 1.60547L67.1387 5.29688C67.2168 8.35677 67.2721 10.7396 67.3047 12.4453C67.3047 13.7604 67.2852 14.9941 67.2461 16.1465C67.2266 16.2246 67.0964 16.2702 66.8555 16.2832L66.416 16.3027C66.0645 16.3158 65.804 16.3223 65.6348 16.3223H65.127C64.4954 16.3288 63.5645 16.332 62.334 16.332C62.1061 16.1302 61.9922 15.2578 61.9922 13.7148L62.0117 10.6484V9.85742C62.0117 9.16081 62.0085 8.64648 62.002 8.31445L61.6309 8.24609C61.416 9.03385 61.0026 10.7884 60.3906 13.5098L60.3027 13.9004C60.2572 14.1022 60.179 14.4635 60.0684 14.9844C59.9642 15.4987 59.8796 15.8893 59.8145 16.1562C59.7363 16.2474 59.3913 16.293 58.7793 16.293H58.6523L57.5586 16.2637L56.9629 16.2734H56.5039L55.7324 16.2832H55.459C55.1595 16.2832 54.9935 16.2148 54.9609 16.0781L54.9707 16.0879L54.082 12.2109C54.056 12.1133 53.9974 11.9017 53.9062 11.5762C53.8151 11.2441 53.763 10.9674 53.75 10.7461L53.0176 7.58203L52.6562 7.60156ZM73.3203 4.02734C73.6133 3.94271 73.9258 3.90039 74.2578 3.90039C74.5898 3.90039 74.9056 3.91341 75.2051 3.93945L75.6152 3.97852C76.2598 4.03711 76.7546 4.11198 77.0996 4.20312V4.19336L77.3047 4.28125C78.6719 4.70443 79.7363 5.34896 80.498 6.21484V6.20508C80.6738 6.41341 80.8887 6.72917 81.1426 7.15234C81.403 7.56901 81.5332 7.85872 81.5332 8.02148L81.6113 8.28516L81.6602 8.56836C81.7839 9.00456 81.8457 9.36914 81.8457 9.66211C81.8457 9.95508 81.849 10.1797 81.8555 10.3359H73.8086V10.6582C73.8477 10.8079 73.8672 10.9642 73.8672 11.127C73.8672 11.2897 73.8672 11.4199 73.8672 11.5176C73.8737 11.6087 73.8835 11.6999 73.8965 11.791C73.9095 11.8757 73.916 11.9473 73.916 12.0059C73.9225 12.0579 73.9388 12.123 73.9648 12.2012C73.9909 12.2728 74.0039 12.3216 74.0039 12.3477C74.0104 12.3737 74.0299 12.4258 74.0625 12.5039C74.1016 12.582 74.1309 12.6569 74.1504 12.7285C74.1764 12.7936 74.222 12.8587 74.2871 12.9238V12.9141L74.3945 13.1191C74.5182 13.2559 74.6875 13.3535 74.9023 13.4121C75.2604 13.334 75.5013 13.1484 75.625 12.8555C75.7552 12.5625 75.8626 12.1979 75.9473 11.7617C76.1816 11.6966 76.5137 11.6641 76.9434 11.6641L78.1934 11.6934H81.7969C81.7188 12.4876 81.4844 13.2168 81.0938 13.8809H81.1035C80.765 14.4147 80.2376 14.8737 79.5215 15.2578C77.4967 15.9674 76.1979 16.3223 75.625 16.3223C75.5208 16.3223 75.4362 16.3158 75.3711 16.3027H75.1465L75.0586 16.3125H74.9707C74.9186 16.3125 74.8535 16.306 74.7754 16.293C74.7103 16.332 74.6322 16.3516 74.541 16.3516L73.6914 16.2539C73.6458 16.2734 73.5514 16.2832 73.4082 16.2832C73.2715 16.2832 72.9069 16.1953 72.3145 16.0195V16.0293L72.0801 15.9609L71.8457 15.8828C70.8691 15.5964 70.0326 15.0951 69.3359 14.3789C68.6393 13.6562 68.1934 12.8164 67.998 11.8594C67.9785 11.7422 67.9427 11.5664 67.8906 11.332C67.8385 11.0911 67.8125 10.9284 67.8125 10.8438V10.375C67.8125 10.2643 67.8158 10.1797 67.8223 10.1211V9.97461C67.8223 8.5944 68.2324 7.40299 69.0527 6.40039C69.873 5.39128 70.9733 4.68164 72.3535 4.27148L72.5879 4.20312C72.9329 4.14453 73.1803 4.08268 73.3301 4.01758L73.3203 4.02734ZM76.2402 9.04688L76.4453 8.91992C76.3346 8.2168 76.2305 7.76758 76.1328 7.57227C76.0352 7.37044 75.9408 7.19792 75.8496 7.05469C75.6803 6.78125 75.4557 6.64453 75.1758 6.64453C74.9023 6.64453 74.668 6.78125 74.4727 7.05469C74.1276 7.53646 73.9095 8.21354 73.8184 9.08594C74.235 9.0599 74.6191 9.04688 74.9707 9.04688H76.2402ZM95.5078 6.27344C96.7188 4.69141 97.9264 3.90039 99.1309 3.90039C100.335 3.90039 101.396 4.34635 102.314 5.23828C102.764 5.68099 103.066 6.17253 103.223 6.71289L103.291 6.97656C103.467 7.58854 103.555 7.9694 103.555 8.11914C103.555 8.26237 103.542 8.37956 103.516 8.4707C103.561 8.50977 103.584 8.56836 103.584 8.64648L103.564 9.02734C103.577 9.49609 103.584 9.82487 103.584 10.0137V16.0098H97.666L97.6562 10.2676L97.666 10.0527C97.666 9.10872 97.4023 8.63672 96.875 8.63672C96.2826 8.63672 95.9863 9.15755 95.9863 10.1992L96.0059 10.873V16L93.291 16.0098H90.5859L90.5762 10.7656L90.5957 10.1309C90.5957 9.28451 90.3353 8.7832 89.8145 8.62695C89.2025 8.65951 88.8965 9.13151 88.8965 10.043L88.916 10.6289V16L85.7715 16.0098H82.6465L82.6367 10.1406V4.31055L85.3125 4.30078H87.998L88.0664 4.53516C88.3073 5.38802 88.4896 6.05208 88.6133 6.52734C89.0365 5.79818 89.528 5.17969 90.0879 4.67188C90.6543 4.15755 91.2174 3.90039 91.7773 3.90039C91.9531 3.90039 92.1289 3.90039 92.3047 3.90039C92.8711 3.90039 93.4505 4.13477 94.043 4.60352C94.6354 5.06576 95.1237 5.6224 95.5078 6.27344ZM118.828 10.0918C118.815 10.1569 118.809 10.196 118.809 10.209V10.2871C118.789 11.3613 118.542 12.3281 118.066 13.1875H118.076C117.412 14.2031 116.484 14.9844 115.293 15.5312C114.108 16.0781 112.939 16.3516 111.787 16.3516C110.635 16.3516 109.678 16.2376 108.916 16.0098C108.161 15.7884 107.461 15.4629 106.816 15.0332C106.172 14.6035 105.693 14.1901 105.381 13.793C104.639 12.8555 104.268 11.5306 104.268 9.81836C104.268 9.75977 104.277 9.71094 104.297 9.67188V9.51562C104.277 9.48958 104.268 9.46354 104.268 9.4375L104.287 9.33008H104.277C104.401 8.19076 104.642 7.44206 105 7.08398C105 7.01237 105.046 6.93099 105.137 6.83984V6.84961L105.283 6.61523C106.051 5.63216 106.93 4.95833 107.92 4.59375L108.262 4.4668C108.691 4.25846 109.294 4.10221 110.068 3.99805L110.381 3.96875C110.426 3.96224 110.518 3.95573 110.654 3.94922C110.798 3.94271 110.898 3.92969 110.957 3.91016L111.377 3.91992C111.396 3.91341 111.419 3.91016 111.445 3.91016C111.471 3.91016 111.501 3.91341 111.533 3.91992L111.523 3.91016C111.562 3.92969 111.621 3.93945 111.699 3.93945C111.725 3.91341 111.771 3.90039 111.836 3.90039C113.249 3.90039 114.45 4.1901 115.439 4.76953L115.635 4.85742C117.764 5.87956 118.828 7.62435 118.828 10.0918ZM112.754 10.1504C112.728 8.85482 112.542 7.97917 112.197 7.52344C112.054 7.33464 111.878 7.24023 111.67 7.24023C111.468 7.24023 111.289 7.36068 111.133 7.60156C110.977 7.83594 110.85 8.20703 110.752 8.71484C110.661 9.22266 110.615 9.67513 110.615 10.0723C110.615 10.4629 110.632 10.8014 110.664 11.0879C110.703 11.3678 110.758 11.6673 110.83 11.9863C110.902 12.2988 111.012 12.5625 111.162 12.7773C111.312 12.9857 111.481 13.0898 111.67 13.0898C112.393 13.0898 112.754 12.11 112.754 10.1504ZM119.814 4.31055L122.412 4.30078H125.01L125.225 5.60938C125.374 6.52734 125.462 7.04818 125.488 7.17188H125.83C126.071 6.05859 126.533 5.26758 127.217 4.79883L127.607 4.57422C127.627 4.53516 127.744 4.46354 127.959 4.35938L127.92 4.36914L128.145 4.28125C128.783 4.02734 129.333 3.89714 129.795 3.89062C129.893 3.89062 129.958 3.89714 129.99 3.91016H130.352V9.35938C130.215 9.32682 130 9.31055 129.707 9.31055C129.414 9.31055 129.111 9.35286 128.799 9.4375C128.493 9.52214 128.232 9.63281 128.018 9.76953C127.809 9.89974 127.627 10.069 127.471 10.2773C126.989 10.9219 126.748 11.8887 126.748 13.1777L126.768 14.2031V16L123.291 16.0098H119.824L119.814 10.1797V4.31055ZM133.291 17.3574C133.896 17.1491 134.199 16.5599 134.199 15.5898C134.199 15.2253 134.076 14.6491 133.828 13.8613L133.672 13.373C132.91 10.9316 131.956 7.91732 130.811 4.33008H133.789L136.729 4.32031L137.168 6.84961C137.201 7.12956 137.253 7.52669 137.324 8.04102C137.396 8.55534 137.448 8.94271 137.48 9.20312L138.428 4.32031H144.199V4.30078L144.395 4.32031L144.346 4.51562H144.326L141.748 11.6641C141.481 12.3346 141.283 12.8978 141.152 13.3535C141.022 13.8027 140.876 14.2259 140.713 14.623C140.55 15.0202 140.264 15.7982 139.854 16.957C139.45 18.1224 139.062 19.0371 138.691 19.7012C138.105 20.6973 137.171 21.2376 135.889 21.3223L134.971 21.332L134.18 21.3711C134.03 21.3711 133.903 21.3613 133.799 21.3418C133.753 21.3548 133.685 21.3613 133.594 21.3613L132.998 21.332L132.617 21.3613C132.585 21.3613 132.503 21.3548 132.373 21.3418C132.1 21.3418 131.826 21.3418 131.553 21.3418L131.367 20.8438C131.354 20.8047 131.348 20.7526 131.348 20.6875C131.348 20.6289 131.351 20.5866 131.357 20.5605V20.4922L131.367 20.3945V19.2812C131.367 18.513 131.364 17.9434 131.357 17.5723C131.449 17.5592 131.546 17.5527 131.65 17.5527C131.761 17.5527 131.849 17.5625 131.914 17.582C132.005 17.5625 132.126 17.5527 132.275 17.5527H132.354C132.406 17.5202 132.523 17.4909 132.705 17.4648C132.887 17.4388 133.027 17.4128 133.125 17.3867C133.223 17.3607 133.278 17.3477 133.291 17.3477V17.3574Z" fill="url(#paint0_linear_298_129)"/>
</g>
<defs>
<filter id="filter0_i_298_129" x="0.830078" y="0.970703" width="143.564" height="24.4004" filterUnits="userSpaceOnUse" color-interpolation-filters="sRGB">
<feFlood flood-opacity="0" result="BackgroundImageFix"/>
<feBlend mode="normal" in="SourceGraphic" in2="BackgroundImageFix" result="shape"/>
<feColorMatrix in="SourceAlpha" type="matrix" values="0 0 0 0 0 0 0 0 0 0 0 0 0 0 0 0 0 0 127 0" result="hardAlpha"/>
<feOffset dy="4"/>
<feGaussianBlur stdDeviation="2"/>
<feComposite in2="hardAlpha" operator="arithmetic" k2="-1" k3="1"/>
<feColorMatrix type="matrix" values="0 0 0 0 0 0 0 0 0 0 0 0 0 0 0 0 0 0 0.25 0"/>
<feBlend mode="normal" in2="shape" result="effect1_innerShadow_298_129"/>
</filter>
<linearGradient id="paint0_linear_298_129" x1="150.492" y1="-1.66" x2="43.9919" y2="81.6265" gradientUnits="userSpaceOnUse">
<stop stop-color="#14FF00"/>
<stop offset="0.951611" stop-color="#2030BE"/>
<stop offset="1" stop-color="#031BEF"/>
</linearGradient>
</defs>
</svg>
